<svg xmlns="http://www.w3.org/2000/svg" xmlns:svg="http://www.w3.org/2000/svg" id="svg2" width="210mm" height="297mm" version="1.1" viewBox="0 0 744.094 1052.362"><metadata id="metadata7"/><g id="layer1"><g id="layer1-3" transform="translate(-235.06454,-531.49224)"><path id="path4773" fill="#c6c6c6" fill-opacity="1" stroke-width=".008" d="m 905.72113,572.73829 q -0.21728,0 -0.37607,0.15878 -0.15879,0.15879 -0.15879,0.37608 0,0.21729 0.15879,0.37608 0.15879,0.15878 0.37607,0.15878 0.21729,0 0.37608,-0.15878 0.15878,-0.15879 0.15878,-0.37608 0,-0.21729 -0.15878,-0.37608 -0.15879,-0.15878 -0.37608,-0.15878 z m -2.50716,0.53486 -4.23711,3.32617 q -0.234,0.16715 -0.20893,0.46801 0.0418,0.2925 0.2925,0.42621 l 1.06973,0.53487 q 0.10864,0.0585 0.24236,0.0585 0.14207,0 0.25907,-0.0669 l 5.76648,-3.23425 0.91929,0.55158 q 0.0669,0.0334 0.10029,0.0418 -0.117,0.4095 -0.0836,0.81065 0.0585,0.6435 0.46801,1.23269 0.4095,0.58918 1.10315,1.03211 1.10315,0.70201 2.31495,0.70201 1.13658,0 1.8553,-0.65187 0.75215,-0.702 0.66022,-1.72994 -0.0585,-0.63514 -0.468,-1.22851 -0.40951,-0.59336 -1.0948,-1.03629 -1.10315,-0.70201 -2.3233,-0.70201 -0.69365,0 -1.26194,0.25908 -0.0752,-0.10865 -0.18386,-0.18386 l -1.01958,-0.61008 1.01958,-0.61008 q 0.10864,-0.0752 0.18386,-0.18385 0.56829,0.25907 1.26194,0.25907 1.22015,0 2.3233,-0.70201 0.68529,-0.44293 1.0948,-1.03629 0.4095,-0.59336 0.468,-1.22851 0.0418,-0.49308 -0.12954,-0.94436 -0.17132,-0.4513 -0.53068,-0.77723 -0.71036,-0.66022 -1.8553,-0.66022 -1.2118,0 -2.31495,0.70201 -0.69365,0.43458 -1.10315,1.02794 -0.40951,0.59336 -0.46801,1.23686 -0.0334,0.40115 0.0836,0.81065 -0.0334,0.008 -0.10029,0.0418 l -0.91929,0.55158 -5.76648,-3.23424 q -0.117,-0.0669 -0.25907,-0.0669 -0.13372,0 -0.24236,0.0585 l -1.06973,0.53486 q -0.25071,0.13371 -0.2925,0.42622 -0.0251,0.30086 0.20893,0.468 z m 5.69126,-2.17288 q -0.38443,-0.351 -0.1755,-0.90257 0.20893,-0.55158 0.88586,-0.9778 0.76887,-0.49307 1.60459,-0.49307 0.61843,0 0.94436,0.30086 0.38444,0.351 0.17551,0.90258 -0.20893,0.55157 -0.88587,0.97779 -0.76886,0.49308 -1.60458,0.49308 -0.61844,0 -0.94437,-0.30087 z m 0.71036,6.22613 q -0.67693,-0.42622 -0.88586,-0.97779 -0.20893,-0.55158 0.1755,-0.90258 0.32593,-0.30086 0.94437,-0.30086 0.83572,0 1.60458,0.49307 0.67694,0.42622 0.88587,0.97779 0.20893,0.55158 -0.17551,0.90258 -0.32593,0.30087 -0.94436,0.30087 -0.83572,0 -1.60459,-0.49308 z m -1.48758,-5.12297 -0.80229,0.48472 v -0.0919 q 0,-0.30086 -0.27579,-0.46801 l -0.117,-0.0669 0.66022,-0.39278 0.21729,0.21728 q 0.0251,0.0251 0.0836,0.0919 0.0585,0.0669 0.10028,0.10029 0.0167,0.0167 0.0334,0.0292 0.0167,0.0125 0.0251,0.0209 z m -1.87202,1.87201 -0.80229,0.26744 -6.15091,-4.81376 1.06973,-0.53486 6.41834,3.60196 v 0.94436 l 1.33715,0.8023 -0.0752,0.0668 q -0.0167,0.0167 -0.0585,0.0502 -0.0334,0.0334 -0.0919,0.10028 -0.0585,0.0669 -0.0919,0.10029 l -0.21729,0.21729 z m -5.88347,3.4766 -1.06973,-0.53485 4.34575,-3.40975 1.47923,1.15329 q 0.0167,0.0251 0.10864,0.0585 z"/><path id="rect4796" fill="#bebebe" fill-opacity="1" fill-rule="nonzero" stroke="none" stroke-dasharray="none" stroke-dashoffset="0" stroke-linecap="square" stroke-linejoin="round" stroke-miterlimit="4" stroke-opacity="1" stroke-width="1.1" d="m 288.76388,572.72393 c -0.30395,3.5e-4 -0.54998,0.2472 -0.54932,0.55115 V 903.7457 c -6.6e-4,0.3039 0.24537,0.5508 0.54932,0.5511 h 636.69434 c 0.30466,7e-4 0.55181,-0.2465 0.55114,-0.5511 V 573.27508 c 6.7e-4,-0.30467 -0.24648,-0.55182 -0.55114,-0.55115 h -10.16968 v 1.10047 h 9.62219 V 903.1982 H 289.31503 V 573.8244 h 607.94311 v -1.10047 z" baseline-shift="baseline" clip-rule="nonzero" color="#000" color-interpolation="sRGB" color-interpolation-filters="linearRGB" color-rendering="auto" direction="ltr" display="inline" dominant-baseline="auto" enable-background="accumulate" font-family="sans-serif" font-size="medium" font-stretch="normal" font-style="normal" font-variant="normal" font-weight="normal" image-rendering="auto" letter-spacing="normal" opacity="1" overflow="visible" shape-rendering="auto" text-anchor="start" text-decoration="none" text-rendering="auto" vector-effect="none" visibility="visible" word-spacing="normal" writing-mode="lr-tb" style="line-height:normal;font-variant-ligatures:normal;font-variant-position:normal;font-variant-caps:normal;font-variant-numeric:normal;font-variant-alternates:normal;font-feature-settings:normal;text-indent:0;text-align:start;text-decoration-line:none;text-decoration-style:solid;text-decoration-color:#000;text-transform:none;text-orientation:mixed;white-space:normal;shape-padding:0;isolation:auto;mix-blend-mode:normal;solid-color:#000;solid-opacity:1;marker:none"/><path id="path4798" fill="none" fill-rule="evenodd" stroke="#bebebe" stroke-dasharray="none" stroke-linecap="butt" stroke-linejoin="miter" stroke-miterlimit="4" stroke-opacity="1" stroke-width="1.063" d="m 288.68198,624.52409 h 637.1129"/><path id="path4806" fill="none" fill-rule="evenodd" stroke="#bebebe" stroke-dasharray="none" stroke-linecap="butt" stroke-linejoin="miter" stroke-miterlimit="4" stroke-opacity="1" stroke-width="1.063" d="M 288.84939,867.0309 H 925.87648"/><path id="path4808" fill="none" fill-rule="evenodd" stroke="#bebebe" stroke-dasharray="none" stroke-linecap="butt" stroke-linejoin="miter" stroke-miterlimit="4" stroke-opacity="1" stroke-width="1.063" d="m 412.76139,867.472 v 35.8636"/><path id="path4810" fill="none" fill-rule="evenodd" stroke="#bebebe" stroke-dasharray="none" stroke-linecap="butt" stroke-linejoin="miter" stroke-miterlimit="4" stroke-opacity="1" stroke-width="1.063" d="M 696.22596,624.1956 V 867.096"/><path id="path4814" fill="none" fill-rule="evenodd" stroke="#bebebe" stroke-dasharray="none" stroke-linecap="butt" stroke-linejoin="miter" stroke-miterlimit="4" stroke-opacity="1" stroke-width="1.063" d="M 288.84939,661.21473 H 696.29784"/><path id="path4820" fill="none" fill-rule="evenodd" stroke="#bebebe" stroke-dasharray="none" stroke-linecap="butt" stroke-linejoin="miter" stroke-miterlimit="4" stroke-opacity="1" stroke-width="1.063" d="M 288.84939,697.88607 H 696.41622"/><path id="path4824" fill="none" fill-rule="evenodd" stroke="#bebebe" stroke-dasharray="none" stroke-linecap="butt" stroke-linejoin="miter" stroke-miterlimit="4" stroke-opacity="1" stroke-width="1.063" d="m 589.92675,867.472 v 35.8636"/></g></g></svg>