<svg xmlns="http://www.w3.org/2000/svg" xmlns:svg="http://www.w3.org/2000/svg" id="svg948" width="512" height="512" version="1.1" viewBox="0 0 135.467 135.467"><metadata id="metadata945"/><g id="layer1" transform="translate(-34.294274,-68.599972)"><g id="g1590" transform="matrix(7.9500992,0,0,7.9500992,-81.038095,43.604759)"><rect id="rect1462" width="17.04" height="17.04" x="14.507" y="3.144" fill="#3b1c4a" fill-opacity="1" fill-rule="nonzero" stroke="none" stroke-dasharray="none" stroke-dashoffset="0" stroke-linecap="butt" stroke-linejoin="miter" stroke-miterlimit="4" stroke-opacity="1" stroke-width=".003" color="#000" display="inline" enable-background="accumulate" opacity="1" overflow="visible" rx="1.664" ry="1.664" vector-effect="none" visibility="visible" style="marker:none"/><g id="g1466" fill="#fff" transform="matrix(0.53248827,0,0,0.53248763,10.76532,5.4529718)"><path id="path1242" fill="#fff" fill-opacity="1" stroke="none" stroke-width="1" d="M 13.026823,1.6638033 V 5.6638117 H 11.026849 V 1.6638033 c 1.7e-5,-1.10454813 0.895426,-1.99995717 1.999974,-1.9999742 h 4.000009 v 1.9999742 h -4.000009 m 20.000044,-1.9999742 c 1.104548,1.633e-5 1.999958,0.8954256 1.999975,1.9999742 V 5.6638117 H 33.026867 V 1.6638033 h -4.000009 v -1.9999742 h 4.000009 M 13.026823,17.663869 v 4.000008 h 4.000009 v 1.999974 h -4.000009 c -1.104548,-1.6e-5 -1.999957,-0.895425 -1.999974,-1.999974 v -4.000039 h 1.999974 m 20.000044,4.000009 v -4.000009 h 1.999975 v 4.000009 c -1.7e-5,1.104548 -0.895427,1.999957 -1.999975,1.999974 h -4.000009 v -1.999974 z"/><path id="rect924" fill="#fff" fill-opacity="1" fill-rule="nonzero" stroke="none" stroke-dasharray="none" stroke-dashoffset="0" stroke-linecap="square" stroke-linejoin="miter" stroke-miterlimit="4" stroke-opacity="1" stroke-width=".237" d="m 22.606148,7.2534859 c -1.563099,0 -2.600392,0.2555936 -3.366909,0.6163077 V 18.736599 h 2.855357 v -3.246967 c 0.210413,0.06014 0.631648,0.120568 1.142657,0.120568 2.089138,0 3.577199,-1.623336 3.577199,-4.178396 0,-2.8406279 -1.698334,-4.1783193 -4.208304,-4.1783181 z m -0.01479,1.6678363 c 1.037054,0 1.397419,0.8274618 1.397419,2.5258268 0,1.653273 -0.420567,2.494121 -1.442594,2.494121 -0.195382,0 -0.346372,-0.0297 -0.451581,-0.07477 V 8.9965648 c 0.13527,-0.045083 0.28634,-0.075243 0.496756,-0.075243 z" color="#000" display="inline" enable-background="accumulate" opacity="1" overflow="visible" visibility="visible" style="marker:none"/></g></g><rect id="rect1593" width="190.802" height="190.802" x="-81.038" y="43.605" fill="none" stroke-width="7.95"/></g></svg>