<svg xmlns="http://www.w3.org/2000/svg" xmlns:svg="http://www.w3.org/2000/svg" id="svg8" width="600" height="40" version="1.1" viewBox="0 0 158.75 10.583"><metadata id="metadata5"/><g id="layer1" transform="translate(0,-286.41665)"><rect id="rect1448" width="158.75" height="10.583" x="0" y="286.417" fill="#fff" fill-opacity="1" fill-rule="nonzero" stroke="none" stroke-dasharray="4.549 9.098" stroke-dashoffset="0" stroke-linecap="square" stroke-linejoin="miter" stroke-miterlimit="4" stroke-opacity="1" stroke-width="2.275" color="#000" display="inline" enable-background="accumulate" opacity="1" overflow="visible" visibility="visible" style="marker:none"/><path id="path1445" fill="#eee" fill-opacity="1" fill-rule="nonzero" stroke="none" stroke-dasharray="8.786 17.572" stroke-dashoffset="0" stroke-linecap="square" stroke-linejoin="miter" stroke-miterlimit="4" stroke-opacity="1" stroke-width="4.393" d="M 0 17.986328 L 0 22.009766 L 22.455078 22.009766 L 22.455078 17.986328 L 0 17.986328 z M 46.601562 17.986328 L 46.601562 22.009766 L 70.755859 22.009766 L 70.755859 17.986328 L 46.601562 17.986328 z M 94.908203 17.986328 L 94.908203 22.009766 L 119.05469 22.009766 L 119.05469 17.986328 L 94.908203 17.986328 z M 143.20898 17.986328 L 143.20898 22.009766 L 167.36133 22.009766 L 167.36133 17.986328 L 143.20898 17.986328 z M 191.50781 17.986328 L 191.50781 22.009766 L 215.66211 22.009766 L 215.66211 17.986328 L 191.50781 17.986328 z M 239.81641 17.986328 L 239.81641 22.009766 L 263.96094 22.009766 L 263.96094 17.986328 L 239.81641 17.986328 z M 288.11523 17.986328 L 288.11523 22.009766 L 312.26953 22.009766 L 312.26953 17.986328 L 288.11523 17.986328 z M 336.42188 17.986328 L 336.42188 22.009766 L 360.56836 22.009766 L 360.56836 17.986328 L 336.42188 17.986328 z M 384.72266 17.986328 L 384.72266 22.009766 L 408.875 22.009766 L 408.875 17.986328 L 384.72266 17.986328 z M 433.02148 17.986328 L 433.02148 22.009766 L 457.17578 22.009766 L 457.17578 17.986328 L 433.02148 17.986328 z M 481.32812 17.986328 L 481.32812 22.009766 L 505.47461 22.009766 L 505.47461 17.986328 L 481.32812 17.986328 z M 529.62891 17.986328 L 529.62891 22.009766 L 553.78125 22.009766 L 553.78125 17.986328 L 529.62891 17.986328 z M 577.92773 17.986328 L 577.92773 22.009766 L 600 22.009766 L 600 17.986328 L 577.92773 17.986328 z" color="#000" display="inline" enable-background="accumulate" opacity="1" overflow="visible" transform="matrix(0.26458334,0,0,0.26458334,0,286.41665)" visibility="visible" style="marker:none"/></g></svg>